<svg xmlns="http://www.w3.org/2000/svg" viewBox="0 0 512 512">
  <defs>
    <linearGradient id="grad" x1="0%" y1="0%" x2="100%" y2="100%">
      <stop offset="0%" style="stop-color:#f59e0b;stop-opacity:1" />
      <stop offset="100%" style="stop-color:#ea580c;stop-opacity:1" />
    </linearGradient>
  </defs>
  <!-- Background -->
  <rect width="512" height="512" rx="100" fill="#09090b"/>
  <!-- Inner circle with gradient -->
  <circle cx="256" cy="256" r="200" fill="url(#grad)"/>
  <!-- Stylized hair/afro shape -->
  <path d="M256 120c-75 0-136 61-136 136 0 50 27 93 67 116v60c0 11 9 20 20 20h98c11 0 20-9 20-20v-60c40-23 67-66 67-116 0-75-61-136-136-136z" fill="#09090b"/>
  <!-- Decorative curls representing afro texture -->
  <circle cx="180" cy="200" r="25" fill="#f59e0b" opacity="0.8"/>
  <circle cx="256" cy="170" r="30" fill="#f59e0b" opacity="0.9"/>
  <circle cx="332" cy="200" r="25" fill="#f59e0b" opacity="0.8"/>
  <circle cx="200" cy="260" r="22" fill="#ea580c" opacity="0.7"/>
  <circle cx="312" cy="260" r="22" fill="#ea580c" opacity="0.7"/>
  <circle cx="256" cy="240" r="28" fill="#f59e0b"/>
  <!-- Face suggestion -->
  <ellipse cx="256" cy="330" rx="45" ry="55" fill="#8B4513"/>
  <!-- Letter F for Fat's -->
  <text x="256" y="350" font-family="Arial Black, sans-serif" font-size="60" font-weight="bold" fill="#f59e0b" text-anchor="middle">F</text>
</svg>
